<?xml version="1.0" encoding="UTF-8"?>
<svg id="download" xmlns="http://www.w3.org/2000/svg" viewBox="0 0 110 110.01">
  <path d="M75.37,54.24c1.92,1.92,1.92,5.04,0,6.96l-16.89,16.89c-1.92,1.92-5.04,1.92-6.96,0l-16.89-16.89c-1.92-1.92-1.92-5.04,0-6.96,1.92-1.92,5.04-1.92,6.96,0l7.24,7.24c.45.45,1.24.13,1.24-.51v-25.57c0-2.72,2.2-4.92,4.92-4.92s4.92,2.2,4.92,4.92v25.57c0,.65.78.97,1.24.51l7.25-7.24c1.92-1.92,5.04-1.92,6.96,0h0Z"/>
  <path d="M90.35,19.65c-9.05-9.05-21.55-14.65-35.36-14.65s-26.31,5.6-35.35,14.65c-9.05,9.04-14.65,21.54-14.65,35.35,0,27.62,22.39,50.01,50.01,50.01,13.8,0,26.3-5.6,35.35-14.65,9.04-9.05,14.65-21.55,14.65-35.36s-5.6-26.3-14.65-35.35ZM54.99,99c-24.26,0-44-19.74-44-44S30.73,11,54.99,11s44,19.74,44,44-19.73,44-44,44Z"/>
</svg>