<?xml version="1.0" encoding="UTF-8"?>
<svg id="Layer_1" xmlns="http://www.w3.org/2000/svg" version="1.1" viewBox="0 0 82.2 76.8">
  <!-- Generator: Adobe Illustrator 29.0.0, SVG Export Plug-In . SVG Version: 2.1.0 Build 186)  -->
  <path d="M68.3,56.1c-.7-2.8-3.1-4.9-6.1-5.3-.2,0-.3,0-.5,0h-.1s0,0,0,0l-4.5-.3c1.7-1.3,1.8-3.1,1.8-3.1,0-.2-.1-.4-.3-.5-.2-.1-4.6-3-3.7-9.6.5-3.2.5-5.5.4-7,.4.5.9.8,1.6.8,1.1,0,2-.9,2-2s-.4-1.3-.9-1.6c0-.1.1-.2.1-.4,0-.1,0-.3.1-.3,0-.1,0-.3,0-.3,0-.1,0-.3,0-.4.2-1.3-.1-2.5-.8-3.4-.5-.6-1-1-1.7-1.1,0,0-.2,0-.3,0,.5-1.7.9-4.4-.3-7.3-1.1-2.4-2.2-3.8-3.4-4.2-.3,0-.6,0-.8,0-.1-.1-.2-.2-.3-.3-.2-.2-.3-.3-.5-.5,0,0,0,0,0,0-.2-.2-.5-.4-.8-.6-.2-.1-.4-.3-.6-.4-.2-.2-.5-.3-.8-.5-.2-.1-.5-.3-.7-.4,0,0,0,0,0,0,0,0,0,0-.1,0-.2,0-.4-.2-.7-.3-.3-.1-.5-.2-.7-.2,0,0-.1,0,0,0,0,0,0,0-.1,0,0,0,0,0,0,0-.5-.2-1-.3-1.5-.3h-.1s0,0,0,0c0,0,0,0,0,0-4.5-.9-8.2-.7-11.1.6-.6,0-2.9.1-5.2,2.3-2.8,2.6-6.1,8.8-5.9,23.1.2,10.9-4.4,14.9-4.5,14.9-.1.1-.2.3-.2.5,0,.2.1.4.3.5.1,0,2.8,1.8,5.6.9,1.3-.4,2.4-1.3,3.2-2.7,0,.4,0,.8-.2,1.2-.6,1.4-2.5,2.6-5.4,3.3,0,0,0,0,0,0-3,.4-5.3,2.5-6.1,5.3-1.3,4.9-1,10.6-.6,14.5,0,.3.3.5.6.5h54.3c.3,0,.6-.2.6-.5.4-3.9.7-9.7-.6-14.5ZM57.4,47.5c-.1.6-.7,2-2.6,2.7l-3.3-.2s-.1,0-.1,0c0,0,0,0-.1,0,0,0-.1,0-.2,0,0,0-.1,0-.2,0h-.1c-.4-.1-.7-.2-1-.3-.1,0-.2,0-.4-.2-.1,0-.2,0-.4-.2-.1,0-.3-.2-.4-.3h-.1c0-.1-.1-.2-.2-.2-.3-.3-.6-.5-.9-.8,0,0-.1-.1-.2-.2-.3-.3-.6-.7-.8-1.2l-.2-.4c0-.2-.1-.3-.2-.5,0-.1,0-.3-.1-.4,0-.2,0-.4-.1-.6,0-.1,0-.2,0-.3s0,0,0-.1c0-.3,0-.7,0-1,0-.2,0-.4,0-.6,0,0,0-.2,0-.3.1-.1.3-.2.4-.3.7-.6,1.4-1.2,2.1-1.9.2-.2.3-.3.5-.5.7-.8,1.3-1.5,1.8-2.2.1-.2.3-.4.4-.6.3-.4.6-.9.9-1.4.1-.2.3-.5.4-.7,0,0,0,0,0,0,0,0,0,0,0,0l.4-.7s0,0,0,0c0,0,0,0,0,0h0c0,0,0-.1,0-.2,0,0,0,0,0,0,0,0,0,0,0,0,0-.2.2-.4.3-.5,0-.2.2-.4.2-.5,0-.2.2-.4.2-.6.2-.4.3-.8.4-1.2,0-.1,0-.2.1-.3,0,1.5,0,3.5-.4,6.4-.9,6.4,2.7,9.7,3.9,10.5ZM42.3,22.2c-.2,0-.4.3-.4.5,0,0,0,.5,0,1.1h-1.4c0-.6,0-1,0-1.1,0-.2-.2-.4-.4-.5-2.5-.8-5.4-.7-7.4-.5.4-1,.8-1.9,1.3-2.9.2-.3.3-.7.5-1,2.5-4.6,5.2-7,8.2-7.2,4.1-.3,7.2,3.6,7.8,4.4,0,0,0,0,0,0,0,0,.1.2.2.3.1.2.2.4.4.6.8,1.4,1.8,3.6,2.5,5.2.1.3.2.5.3.7l-1.2.4c-.2-.1-.4-.3-.6-.3-1.7-.3-6.1-1-9.7.2ZM30.8,28.2c.3.2,1.2.5,3.1.5s1.8,0,2.9-.2c1.1-.1,1.9-.6,2.5-1.4.5-.6.8-1.4.9-2.2h1.6c.1.7.4,1.5.9,2.2.6.8,1.4,1.2,2.5,1.4,1.2.1,2.1.2,2.9.2,2,0,2.8-.3,3.2-.5.9-.5,1.5-2,1.8-4.5,0,0,0-.2,0-.2l.8-.3c0,0,0,.2,0,.3h0c0,.2,0,.3,0,.3,0,0,0,.1,0,.2h0s0,.2,0,.2c0,0,0,0,0,.1,0,.1,0,.3,0,.5,0,.2,0,.4,0,.7,0,0,0,.1,0,.1,0,.3,0,.5-.1.9v.3c0,0,0,0,0,.1,0,0,0,.2,0,.2,0,0,0,.1,0,.2,0,0,0,.1,0,.2h0s0,0,0,0c0,0,0,0,0,.1,0,0,0,.1,0,.1v.5c-.1,0-.1,0-.1,0l-.2.7c0,.2-.1.5-.2.7,0,.3-.2.6-.3.9-.1.4-.2.7-.4,1.1-.1.4-.3.7-.5,1.1,0,0,0,0,0,.1,0,0,0,0,0,0,0,0,0,.2-.1.3-.2.3-.3.7-.5,1-.1.2-.2.4-.4.7-.2.4-.5.9-.8,1.3,0,.2-.2.3-.4.5-.5.7-1,1.4-1.7,2.1-.1.2-.3.3-.4.5-.6.6-1.3,1.2-1.9,1.8-.1.1-.3.2-.4.3,0,0,0,0,0,0,0,0,0,0-.1,0-.3.2-.5.4-.8.5-.3.2-.5.3-.8.4-.3.2-.7.3-1,.4-.9.3-1.6.3-2.5,0-.3-.1-.6-.2-1-.4-.3-.1-.5-.3-.8-.4-.3-.2-.5-.3-.8-.5,0,0-.1,0-.2-.1,0,0-.1,0-.2-.1-.4-.3-.8-.6-1.3-1.1l-.5-.5c-.2-.2-.4-.4-.6-.6-.2-.2-.3-.4-.5-.6-.2-.2-.3-.4-.5-.6-.2-.2-.3-.4-.5-.7-.2-.2-.3-.5-.5-.7-.3-.5-.6-1-1-1.5-.2-.3-.3-.5-.5-.8-.1-.3-.3-.6-.4-.9-.1-.3-.3-.6-.4-.9-.1-.3-.2-.6-.4-.9v-.2c-.1-.1-.2-.3-.2-.5,0,0,0,0,0-.1.3-1,.5-1.9.8-2.8.2.2.4.4.6.5ZM36.5,47.7c0,0,.1-.2.2-.3,0,0,0,0,0,0,0,0,0,0,0,0,0,0,0,0,0,0,0,0,0,0,0,0,0,0,0,0,0,0,0-.2.2-.3.3-.5,0,0,0,0,0,0,0,0,0,0,0-.1,0-.2.1-.4.2-.5,0,0,0-.1,0-.2,0,0,0-.1,0-.2,0,0,0,0,0-.1h0c0-.1,0-.1,0-.1,0,0,0,0,0,0,0-.2,0-.4.1-.7,0,0,0-.2,0-.3,0-.1,0-.2,0-.3,0-.4,0-.7,0-1.1.3.2.5.3.8.4.4.2.8.3,1.1.4.3.1.6.2,1,.2.2,0,.4,0,.6,0s.4,0,.7,0c.3,0,.6-.1.9-.2.4-.1.7-.3,1.1-.4.3-.1.5-.3.8-.4,0,.3,0,.7,0,1.1,0,0,0,.1,0,.2,0,.1,0,.2,0,.4,0,.3,0,.5.1.8,0,.2,0,.4.1.5,0,.2.1.4.2.7l.2.5c.3.5.6,1,.9,1.4,0,.1.2.2.2.3.3.3.6.6,1,.9,0,0,0,0,0,0,0,0,0,0,0,0s0,0,0,0c0,0,0,0,0,0,.1.1.3.2.4.3.2.1.3.2.6.4.2,0,.3.2.4.2,0,0,0,0,0,0,0,0,0,0,0,0-.5.2-1,.4-1.6.5-3.9,1.1-8.6,1.2-12.6,0-.5-.2-1.1-.3-1.6-.5,0,0,0,0,0,0,0,0,.2,0,.2-.1,0,0,0,0,0,0,0,0,0,0,0,0,.2,0,.3-.2.4-.3,0,0,.2-.1.3-.2,0,0,0,0,.1,0h0c.1-.2.3-.2.4-.4.1-.1.3-.2.4-.3.1-.1.3-.2.3-.3h0s0,0,0,0c0,0,.1-.1.2-.2,0,0,.1-.1.1-.2,0,0,0,0,0,0,.1-.2.3-.3.4-.5,0,0,0,0,0,0,0,0,0-.1,0-.2ZM57.5,29c0,.4-.3.8-.8.8s-.8-.3-.8-.8c0-.4.3-.7.8-.7s0,0,0,0c0,0,0,0,0,0,.3,0,.6.4.6.7ZM54.9,26.9s0,0,0,0c0,0,0,0,0-.1v-.2c0-.3.1-.6.1-.9h0c0-.4,0-.6,0-.8,0-.2,0-.3,0-.5,0,0,0-.2,0-.3h0c0-.2,0-.3,0-.5h0c0-.2,0-.4,0-.5v-.3c.1,0,.3,0,.4,0,.4,0,.7.4.9.6.5.6.7,1.6.5,2.5,0,0,0,0,0,0,0,0,0,.1,0,.3,0,0,0,0,0,.2,0,0,0,.2,0,.3,0,.1-.1.3-.2.4,0,0,0,0,0,0-.2,0-.3,0-.5,0,0,0,0,0,0,0-.2,0-.3.1-.4.2,0,0,0,0-.1.1,0,0-.2.2-.2.3,0,0-.1.1-.2.2,0,0,0,.2-.1.3,0-.4-.1-.6-.2-.7,0,0,0-.1,0-.1,0,0,0,0,0-.1,0-.1,0-.3,0-.4ZM26.6,48c.7-1.9-.3-3.5-.3-3.6-.1-.2-.3-.3-.5-.3s0,0,0,0c-.2,0-.4.2-.5.4-.7,1.8-1.8,3-3.1,3.4-1.5.5-3,0-3.9-.4,1.4-1.5,4.5-6,4.3-15.3-.2-13.9,2.9-19.8,5.5-22.2,2.2-2.1,4.3-1.9,4.5-1.9,0,0,.2,0,.3,0,2.7-1.3,6.2-1.5,10.5-.6h0c0,0,.1,0,.2,0,.5,0,1,.2,1.4.3,0,0,0,0,0,0,0,0,0,0,0,0,.2,0,.5.2.7.3,0,0,0,0,.1,0,.2,0,.3.1.5.2,0,0,0,0,.1,0,0,0,0,0,0,0,.2.1.4.2.7.3.2.1.5.3.7.4.2.1.4.3.6.4.2.2.5.4.8.6.2.2.3.3.5.5.2.2.4.4.5.6s.5.3.8.1c0,0,.2,0,.4,0,.5.2,1.4.8,2.6,3.5,1,2.2.8,4.3.5,5.9,0,0,0,0,0-.1,0-.2-.2-.4-.3-.6,0,0,0-.1,0-.2-.1-.2-.2-.5-.3-.8,0,0,0,0,0-.1-.1-.3-.3-.5-.4-.8,0,0,0,0,0,0-.1-.3-.3-.5-.4-.8,0,0,0-.1,0-.2-.1-.3-.3-.5-.4-.7,0,0,0,0,0,0-.1-.2-.2-.4-.3-.6,0,0,0,0,0-.1-.1-.2-.2-.4-.3-.6,0,0,0,0,0-.1-.1-.2-.2-.3-.3-.5,0,0,0,0,0,0-1.9-2.5-5.1-5.1-8.8-4.8-3.4.2-6.5,2.9-9.2,7.8-.2.3-.4.7-.6,1.1-.6,1.3-1.2,2.6-1.8,3.9-.5,1.2-.9,2.4-1.4,3.7,0,0,0,0,0,0-.5,1.5-.9,2.9-1.3,4.5,0,0,0,0,0,.1,0,0,0,.2,0,.2,0,.1,0,.2,0,.3,0,.2.1.3.2.5v.2c.2.3.3.6.5,1,.1.3.3.6.4.9.1.3.3.6.5.9.2.3.3.6.5.9.4.6.7,1.1,1,1.6.2.3.4.5.6.8.2.2.4.5.6.8.2.2.3.4.6.7.2.2.4.4.5.6.2.2.4.4.6.6l.6.6c.6.5,1,.9,1.4,1.2,0,0,0,0,.1,0,0,0,0,.2,0,.3,0,.2,0,.3,0,.5,0,.3,0,.7,0,1.1,0,0,0,.2,0,.3,0,0,0,0,0,.1,0,0,0,.1,0,.1,0,.2,0,.3,0,.5,0,0,0,0,0,0,0,0,0,.1,0,.2v.2c0,0,0,0,0,.1,0,0,0,.1,0,.1,0,.2-.1.3-.2.4s0,0,0,0c0,0,0,0,0,0,0,.2-.1.3-.2.5,0,0,0,0,0,0h0c0,0,0,.1-.2.3,0,0,0,0,0,.1h0c-.1.3-.2.4-.4.6,0,0-.2.2-.3.3,0,0-.2.2-.3.3,0,0-.2.2-.3.3,0,0-.2.1-.3.2h0c0,0,0,.1,0,.1,0,0-.1,0-.2.1s0,0,0,0c0,0,0,0,0,0-.1,0-.2.1-.4.2-.1,0-.2.1-.4.2,0,0,0,0-.1,0-.1,0-.3,0-.4.1,0,0-.1,0-.2,0,0,0,0,0,0,0-.1,0-.2,0-.4,0,0,0,0,0,0,0,0,0-.1,0-.2,0,0,0,0,0-.1,0,0,0,0,0,0,0-.2,0-.4,0-.6,0l-6.2.4c1.2-.7,2-1.6,2.4-2.5Z"/>
  <path d="M41.4,56.4c1.9,0,3.7-.4,5.3-.9,2.7-.9,4.5-2.4,5.2-4.2l2.9.2s0,0,.1,0l6.5.4c0,0,.1,0,.2,0h0c.1,0,.2,0,.4,0,2.5.4,4.5,2.1,5.1,4.4,1.2,4.5,1,9.7.6,13.6h-8.8v-4.3c0-.3-.3-.6-.6-.6s-.6.3-.6.6v4.3H24.5v-4.3c0-.3-.3-.6-.6-.6s-.6.3-.6.6v4.3h-8.8c-.4-3.8-.6-9.1.6-13.6.6-2.3,2.6-4.1,5.2-4.4.1,0,.2,0,.4,0h0s0,0,0,0c0,0,0,0,0,0h0s6-.4,6-.4l2.8-.2c.8,1.9,3,3.5,6,4.4,1.4.4,2.9.6,4.5.7h1.2Z"/>
</svg>