<?xml version="1.0" encoding="UTF-8"?>
<svg id="sort-rename" xmlns="http://www.w3.org/2000/svg" viewBox="0 0 110 110.01">
  <path d="M70.11,57.84l-26.42,17.57c-2.24,1.53-5.31-.12-5.31-2.83v-35.14c0-2.71,3.07-4.36,5.31-2.83l26.42,17.57c2,1.3,2,4.36,0,5.66Z"/>
  <path d="M90.35,19.65c-9.05-9.05-21.55-14.65-35.36-14.65s-26.31,5.6-35.35,14.65c-9.05,9.04-14.65,21.54-14.65,35.35,0,27.62,22.39,50.01,50.01,50.01,13.8,0,26.3-5.6,35.35-14.65,9.04-9.05,14.65-21.55,14.65-35.36s-5.6-26.3-14.65-35.35ZM54.99,99c-24.26,0-44-19.74-44-44S30.73,11,54.99,11s44,19.74,44,44-19.73,44-44,44Z"/>
</svg>