<?xml version="1.0" encoding="UTF-8"?>
<svg id="transcript" xmlns="http://www.w3.org/2000/svg" viewBox="0 0 110 110.01" fill="#B45309">
  <g>
    <path d="M82.15,31.61c-8.97-1.21-18.38-.86-27.43-.52-9.14.35-18.2,1.29-27.26,2.67-2.67.43-2.07,5.09.69,4.83,8.8-.95,17.69-1.55,26.57-1.73,8.89-.26,17.77.6,26.66.52,3.19,0,4.14-5.26.78-5.78Z"/>
    <path d="M82.15,45.79c-8.97-1.21-18.38-.86-27.43-.52-9.14.35-18.2,1.29-27.26,2.67-2.67.43-2.07,5.09.69,4.83,8.8-.95,17.69-1.55,26.57-1.73s17.77.6,26.66.6c3.19-.09,4.14-5.43.78-5.87Z"/>
    <path d="M82.15,58.46c-8.97-1.21-18.38-.86-27.43-.52-9.14.35-18.2,1.29-27.26,2.67-2.67.43-2.07,5.09.69,4.83,8.8-.95,17.69-1.55,26.57-1.73,8.89-.17,17.77.6,26.66.6,3.19-.17,4.14-5.43.78-5.87Z"/>
    <path d="M82.15,72.25c-8.97-1.21-18.38-.86-27.43-.52-9.14.35-18.2,1.29-27.26,2.67-2.67.43-2.07,5.09.69,4.83,8.8-.95,17.69-1.55,26.57-1.73,8.89-.17,17.77.6,26.66.6,3.19-.17,4.14-5.43.78-5.87Z"/>
  </g>
  <path d="M90.35,19.65c-9.05-9.05-21.55-14.65-35.36-14.65s-26.31,5.6-35.35,14.65c-9.05,9.04-14.65,21.54-14.65,35.35,0,27.62,22.39,50.01,50.01,50.01,13.8,0,26.3-5.6,35.35-14.65,9.04-9.05,14.65-21.55,14.65-35.36s-5.6-26.3-14.65-35.35ZM54.99,99c-24.26,0-44-19.74-44-44S30.73,11,54.99,11s44,19.74,44,44-19.73,44-44,44Z"/>
</svg>